<svg width="126" height="53" viewBox="0 0 126 53" fill="none" xmlns="http://www.w3.org/2000/svg">
<path d="M111.391 0C109.561 0.816319 108.349 1.7048 106.978 3.1602C105.546 4.67482 104.047 6.05332 102.468 7.41029C99.5817 9.91756 96.9122 12.6184 94.2337 15.3441C93.2881 16.3062 92.341 17.2668 91.3923 18.2259C90.9802 18.6454 90.5682 19.0649 90.1436 19.4971C89.5129 20.0988 89.5129 20.0988 88.8696 20.7126C88.4286 21.1556 87.9876 21.5986 87.5333 22.0549C85.1489 23.5836 83.1176 23.5762 80.3359 23.6539C79.8133 23.6775 79.2907 23.7011 78.7523 23.7254C77.0905 23.798 75.4287 23.8547 73.7663 23.9109C72.6365 23.9575 71.5066 24.005 70.3769 24.0537C67.6139 24.1704 64.8507 24.2729 62.087 24.3678C64.4217 21.3023 66.7751 18.3334 69.4294 15.5345C74.7748 9.70204 74.7748 9.70204 76.087 6.70115C75.8706 5.32808 75.8706 5.32808 75.4783 4.26437C72.6978 4.4825 71.3041 6.53086 69.5815 8.49066C69.26 8.84772 68.9385 9.20479 68.6073 9.57267C67.6462 10.6418 66.6919 11.7166 65.7391 12.7931C61.7524 17.2709 61.7524 17.2709 57.6739 21.6645C57.3067 22.0548 56.9395 22.4451 56.5611 22.8472C54.4355 24.5033 51.8248 24.4494 49.2085 24.5488C48.5994 24.5732 47.9903 24.5975 47.3627 24.6226C46.7127 24.6461 46.0627 24.6696 45.393 24.6938C44.3862 24.7331 44.3862 24.7331 43.359 24.7732C41.2195 24.8561 39.0799 24.9356 36.9402 25.0151C35.4878 25.0708 34.0354 25.1267 32.5831 25.1829C29.0265 25.3199 25.4698 25.4541 21.913 25.5862C22.3156 25.1307 22.7181 24.6753 23.1328 24.206C23.9037 23.3061 23.9037 23.3061 24.6902 22.3879C25.2057 21.7943 25.7212 21.2006 26.2524 20.5889C27.3913 18.8851 27.3913 18.8851 27.2558 17.4477C26.7826 16.4483 26.7826 16.4483 25.8363 16.0033C23.5374 15.7497 21.9346 16.9651 20.0109 18.0855C16.4631 20.0653 12.9604 21.7725 9.13044 23.1494C8.25242 23.4675 8.25242 23.4675 7.35666 23.7919C6.21369 24.2054 5.06937 24.6152 3.92324 25.0198C2.56126 25.5381 1.28873 26.1267 7.62939e-06 26.8046C0.114136 27.9088 0.114136 27.9088 0.608704 29.2414C2.60985 30.6095 4.59763 31.4771 6.88587 32.2493C8.90143 32.9584 10.8162 33.6899 12.7065 34.6861C15.4816 36.1439 18.3991 37.1965 21.3329 38.2889C23.0852 38.9333 23.0852 38.9333 24.5 39.7024C25.8828 40.3573 26.5916 40.1011 28 39.5977C28.1807 37.7131 28.1814 36.8148 27.0893 35.231C26.6994 34.825 26.3094 34.419 25.9076 34.0007C24.3247 32.3666 24.3247 32.3666 23.1304 30.4598C27.1678 29.729 31.1882 29.4755 35.2806 29.3181C36.6569 29.261 38.0328 29.1921 39.4083 29.117C41.5376 29.0022 43.6663 28.9252 45.7979 28.8663C46.6551 28.8375 47.5121 28.7979 48.3684 28.7468C53.1479 28.4716 56.5762 28.7014 60.3156 32.0089C61.3425 33.0887 62.3419 34.1957 63.3044 35.3333C63.6745 35.7678 64.0447 36.2024 64.426 36.65C65.3546 37.8085 66.2189 38.9911 67.0707 40.2069C67.6778 41.0451 68.2857 41.8828 68.8944 42.7198C69.3273 43.3206 69.3273 43.3206 69.7691 43.9335C71.5852 46.4145 73.5339 48.7914 75.4783 51.1724C76.6835 50.8709 76.6835 50.8709 77.913 50.5632C77.0466 44.4495 71.9796 39.3366 68.1739 34.7241C67.208 33.5443 66.2427 32.364 65.2779 31.1832C64.7921 30.5887 64.3063 29.9943 63.8058 29.3818C63.4394 28.9334 63.0731 28.485 62.6957 28.023C65.9325 27.9283 69.1652 27.8834 72.4034 27.8817C73.5009 27.8745 74.5984 27.8544 75.6954 27.8204C83.3359 27.5617 83.3359 27.5617 89.8707 31.0675C91.1675 32.3396 92.3866 33.6577 93.5664 35.039C94.6117 36.2476 95.7596 37.3284 96.9253 38.4198C97.6409 39.1274 98.3543 39.8372 99.0652 40.5496C99.4451 40.9294 99.8251 41.3092 100.216 41.7006C102.987 44.5051 105.526 47.4137 107.96 50.518C108.957 51.7816 108.957 51.7816 110.174 53C110.777 53 111.379 53 112 53C112.315 50.1636 111.821 48.6894 110.052 46.4546C109.623 45.944 109.623 45.944 109.185 45.4231C108.89 45.0604 108.594 44.6976 108.29 44.3239C103.638 38.6903 98.7418 33.3122 93.1304 28.6322C103.777 28.4312 114.423 28.2301 125.391 28.023C125.592 27.0178 125.793 26.0126 126 24.977C124.086 24.4126 122.376 24.2938 120.383 24.2987C119.75 24.2987 119.116 24.2988 118.463 24.2988C117.784 24.3019 117.104 24.3051 116.404 24.3083C115.704 24.3092 115.005 24.3101 114.285 24.3109C112.052 24.3143 109.82 24.322 107.587 24.3297C106.073 24.3328 104.559 24.3356 103.046 24.3381C99.3347 24.3448 95.6239 24.355 91.913 24.3678C94.1919 21.7245 96.4704 19.1179 98.9701 16.6791C99.4589 16.1973 99.9478 15.7156 100.451 15.2192C101.454 14.2375 102.457 13.2571 103.462 12.2779C110.347 5.48114 110.347 5.48114 112 2.43678C111.804 1.06029 111.804 1.06029 111.391 0Z" fill="#5C3F17"/>
</svg>
