<svg width="126" height="53" viewBox="0 0 126 53" fill="none" xmlns="http://www.w3.org/2000/svg">
<path d="M14.6087 0C16.4389 0.816319 17.6507 1.7048 19.0217 3.1602C20.4536 4.67482 21.9532 6.05332 23.5323 7.41029C26.4183 9.91756 29.0878 12.6184 31.7663 15.3441C32.7119 16.3062 33.659 17.2668 34.6077 18.2259C35.0198 18.6454 35.4318 19.0649 35.8564 19.4971C36.4871 20.0988 36.4871 20.0988 37.1304 20.7126C37.5714 21.1556 38.0124 21.5986 38.4667 22.0549C40.8511 23.5836 42.8824 23.5762 45.6641 23.6539C46.1867 23.6775 46.7093 23.7011 47.2477 23.7254C48.9095 23.798 50.5713 23.8547 52.2337 23.9109C53.3635 23.9575 54.4934 24.005 55.6231 24.0537C58.3861 24.1704 61.1493 24.2729 63.913 24.3678C61.5783 21.3023 59.2249 18.3334 56.5706 15.5345C51.2252 9.70204 51.2252 9.70204 49.913 6.70115C50.1294 5.32808 50.1294 5.32808 50.5217 4.26437C53.3022 4.4825 54.6959 6.53086 56.4185 8.49066C56.74 8.84772 57.0615 9.20479 57.3927 9.57267C58.3538 10.6418 59.3081 11.7166 60.2609 12.7931C64.2476 17.2709 64.2476 17.2709 68.3261 21.6645C68.6933 22.0548 69.0605 22.4451 69.4389 22.8472C71.5645 24.5033 74.1752 24.4494 76.7915 24.5488C77.4006 24.5732 78.0097 24.5975 78.6373 24.6226C79.2873 24.6461 79.9373 24.6696 80.607 24.6938C81.6138 24.7331 81.6138 24.7331 82.641 24.7732C84.7805 24.8561 86.9201 24.9356 89.0598 25.0151C90.5122 25.0708 91.9646 25.1267 93.4169 25.1829C96.9735 25.3199 100.53 25.4541 104.087 25.5862C103.684 25.1307 103.282 24.6753 102.867 24.206C102.096 23.3061 102.096 23.3061 101.31 22.3879C100.794 21.7943 100.279 21.2006 99.7476 20.5889C98.6087 18.8851 98.6087 18.8851 98.7442 17.4477C99.2174 16.4483 99.2174 16.4483 100.164 16.0033C102.463 15.7497 104.065 16.9651 105.989 18.0855C109.537 20.0653 113.04 21.7725 116.87 23.1494C117.748 23.4675 117.748 23.4675 118.643 23.7919C119.786 24.2054 120.931 24.6152 122.077 25.0198C123.439 25.5381 124.711 26.1267 126 26.8046C125.886 27.9088 125.886 27.9088 125.391 29.2414C123.39 30.6095 121.402 31.4771 119.114 32.2493C117.099 32.9584 115.184 33.6899 113.293 34.6861C110.518 36.1439 107.601 37.1965 104.667 38.2889C102.915 38.9333 102.915 38.9333 101.5 39.7024C100.117 40.3573 99.4084 40.1011 98 39.5977C97.8193 37.7131 97.8186 36.8148 98.9107 35.231C99.3006 34.825 99.6906 34.419 100.092 34.0007C101.675 32.3666 101.675 32.3666 102.87 30.4598C98.8322 29.729 94.8118 29.4755 90.7194 29.3181C89.3431 29.261 87.9672 29.1921 86.5917 29.117C84.4624 29.0022 82.3337 28.9252 80.2021 28.8663C79.3449 28.8375 78.4879 28.7979 77.6316 28.7468C72.8521 28.4716 69.4238 28.7014 65.6844 32.0089C64.6575 33.0887 63.6581 34.1957 62.6956 35.3333C62.3255 35.7678 61.9553 36.2024 61.574 36.65C60.6454 37.8085 59.7811 38.9911 58.9293 40.2069C58.3222 41.0451 57.7143 41.8828 57.1056 42.7198C56.6727 43.3206 56.6727 43.3206 56.2309 43.9335C54.4148 46.4145 52.4661 48.7914 50.5217 51.1724C49.3165 50.8709 49.3165 50.8709 48.087 50.5632C48.9534 44.4495 54.0204 39.3366 57.8261 34.7241C58.792 33.5443 59.7573 32.364 60.7221 31.1832C61.2079 30.5887 61.6937 29.9943 62.1942 29.3818C62.5606 28.9334 62.9269 28.485 63.3043 28.023C60.0675 27.9283 56.8348 27.8834 53.5966 27.8817C52.4991 27.8745 51.4016 27.8544 50.3046 27.8204C42.6641 27.5617 42.6641 27.5617 36.1293 31.0675C34.8325 32.3396 33.6134 33.6577 32.4336 35.039C31.3883 36.2476 30.2404 37.3284 29.0747 38.4198C28.3591 39.1274 27.6457 39.8372 26.9348 40.5496C26.5549 40.9294 26.1749 41.3092 25.7835 41.7006C23.0129 44.5051 20.4738 47.4137 18.0397 50.518C17.0435 51.7816 17.0435 51.7816 15.8261 53C15.2235 53 14.6209 53 14 53C13.6846 50.1636 14.1785 48.6894 15.9481 46.4546C16.3773 45.944 16.3773 45.944 16.8152 45.4231C17.1104 45.0604 17.4056 44.6976 17.7097 44.3239C22.3625 38.6903 27.2582 33.3122 32.8696 28.6322C22.2235 28.4312 11.5774 28.2301 0.608696 28.023C0.407826 27.0178 0.206957 26.0126 0 24.977C1.91434 24.4126 3.62446 24.2938 5.61676 24.2987C6.25028 24.2987 6.8838 24.2988 7.53651 24.2988C8.2163 24.3019 8.89608 24.3051 9.59647 24.3083C10.2956 24.3092 10.9947 24.3101 11.715 24.3109C13.9477 24.3143 16.1803 24.322 18.413 24.3297C19.9269 24.3328 21.4407 24.3356 22.9545 24.3381C26.6653 24.3448 30.3761 24.355 34.087 24.3678C31.8081 21.7245 29.5296 19.1179 27.0299 16.6791C26.5411 16.1973 26.0522 15.7156 25.5486 15.2192C24.5464 14.2375 23.543 13.2571 22.5384 12.2779C15.6533 5.48114 15.6533 5.48114 14 2.43678C14.1962 1.06029 14.1962 1.06029 14.6087 0Z" fill="#5C3F17"/>
</svg>
