<svg width="25" height="58" viewBox="0 0 25 58" fill="none" xmlns="http://www.w3.org/2000/svg">
<path d="M17.7069 57C18.0576 55.9999 15.6455 51.8248 15.546 49.2085L15.4722 47.3627L15.401 45.393L15.3217 43.359C15.2388 41.2195 15.1592 39.0798 15.0798 36.9402C15.0241 35.4878 14.9681 34.0354 14.912 32.583C14.775 29.0265 14.6407 25.4698 14.5086 21.913L15.8888 23.1328L17.7069 24.6902L19.5059 26.2524C21.2098 27.3913 21.2098 27.3913 22.6471 27.2558C23.6466 26.7826 23.6466 26.7826 24.0916 25.8363C24.3452 23.5374 23.1298 21.9346 22.0094 20.0108C20.0295 16.463 18.3223 12.9603 16.9454 9.13041L16.3029 7.35663C15.8894 6.21366 15.4797 5.06934 15.075 3.92321C14.5568 2.56123 13.9681 1.28871 13.2902 -2.24146e-05C12.1861 0.11411 12.1861 0.11411 10.8535 0.608674C9.48536 2.60982 8.61778 4.59759 7.84556 6.88584C7.13645 8.9014 6.40491 10.8162 5.40878 12.7065C3.95097 15.4816 2.89833 18.3991 1.80596 21.3329C1.16159 23.0852 1.16159 23.0852 0.392437 24.5C-0.260847 25.8794 -0.00751632 26.5881 0.493474 27.9897L0.497143 28C2.38172 28.1807 3.28006 28.1814 4.86384 27.0893L6.09413 25.9076C7.7283 24.3246 7.7283 24.3246 9.63508 23.1304C10.3658 27.1678 10.6193 31.1881 10.7767 35.2805C10.8338 36.6569 10.9027 38.0328 10.9778 39.4083C11.0927 41.5376 11.1697 43.6663 11.2285 45.7978C11.2574 46.6551 11.297 47.5121 11.348 48.3684C11.6233 53.1479 8.55438 56.0001 9.09473 57.0001C9.63507 58.0001 17.3562 58.0001 17.7069 57Z" fill="#5C3F17"/>
</svg>
