<svg width="53" height="126" viewBox="0 0 53 126" fill="none" xmlns="http://www.w3.org/2000/svg">
<path d="M-6.38566e-07 111.391C0.816318 109.561 1.7048 108.349 3.1602 106.978C4.67482 105.546 6.05332 104.047 7.41029 102.468C9.91755 99.5817 12.6184 96.9122 15.3441 94.2337C16.3062 93.2881 17.2668 92.341 18.2259 91.3923C18.6454 90.9802 19.0649 90.5682 19.4971 90.1436C20.0988 89.5129 20.0988 89.5129 20.7126 88.8696C21.1556 88.4286 21.5986 87.9876 22.0549 87.5333C23.5836 85.1489 23.5762 83.1176 23.6539 80.3359C23.6775 79.8133 23.7011 79.2907 23.7254 78.7523C23.798 77.0905 23.8547 75.4287 23.9109 73.7663C23.9575 72.6365 24.005 71.5066 24.0537 70.3769C24.1704 67.6139 24.2729 64.8507 24.3678 62.087C21.3023 64.4217 18.3334 66.7751 15.5345 69.4294C9.70204 74.7748 9.70204 74.7748 6.70115 76.087C5.32808 75.8706 5.32808 75.8706 4.26437 75.4783C4.48249 72.6978 6.53086 71.3041 8.49066 69.5815C8.84772 69.26 9.20478 68.9385 9.57267 68.6073C10.6418 67.6462 11.7166 66.6919 12.7931 65.7391C17.2709 61.7524 17.2709 61.7524 21.6645 57.6739C22.0548 57.3067 22.4451 56.9395 22.8472 56.5611C24.5033 54.4355 24.4494 51.8248 24.5488 49.2085C24.5732 48.5994 24.5975 47.9903 24.6226 47.3627C24.6461 46.7127 24.6696 46.0627 24.6938 45.393C24.7331 44.3862 24.7331 44.3862 24.7732 43.359C24.8561 41.2195 24.9356 39.0799 25.0151 36.9402C25.0708 35.4878 25.1267 34.0354 25.1829 32.5831C25.3199 29.0265 25.4541 25.4698 25.5862 21.913C25.1307 22.3156 24.6753 22.7181 24.206 23.1328C23.3061 23.9037 23.3061 23.9037 22.3879 24.6902C21.7942 25.2057 21.2006 25.7212 20.5889 26.2524C18.8851 27.3913 18.8851 27.3913 17.4477 27.2558C16.4483 26.7826 16.4483 26.7826 16.0033 25.8363C15.7497 23.5374 16.965 21.9346 18.0855 20.0109C20.0653 16.4631 21.7725 12.9603 23.1494 9.13044C23.4675 8.25242 23.4675 8.25242 23.7919 7.35666C24.2054 6.21369 24.6152 5.06937 25.0198 3.92324C25.5381 2.56126 26.1267 1.28873 26.8046 6.45773e-06C27.9088 0.114135 27.9088 0.114135 29.2414 0.608702C30.6095 2.60985 31.4771 4.59762 32.2493 6.88587C32.9584 8.90143 33.6899 10.8162 34.6861 12.7065C36.1439 15.4816 37.1965 18.3991 38.2889 21.3329C38.9333 23.0852 38.9333 23.0852 39.7024 24.5C40.3573 25.8828 40.1011 26.5916 39.5977 28C37.7131 28.1807 36.8148 28.1814 35.231 27.0893C34.825 26.6994 34.419 26.3094 34.0007 25.9076C32.3665 24.3247 32.3665 24.3247 30.4598 23.1304C29.729 27.1678 29.4755 31.1882 29.3181 35.2806C29.261 36.6569 29.1921 38.0328 29.117 39.4083C29.0022 41.5376 28.9252 43.6663 28.8663 45.7979C28.8375 46.6551 28.7979 47.5121 28.7468 48.3684C28.4716 53.1479 28.7014 56.5762 32.0089 60.3156C33.0887 61.3425 34.1957 62.3419 35.3333 63.3044C35.7678 63.6745 36.2024 64.0447 36.65 64.426C37.8085 65.3546 38.9911 66.2189 40.2069 67.0707C41.0451 67.6778 41.8828 68.2857 42.7198 68.8944C43.3206 69.3273 43.3206 69.3273 43.9335 69.7691C46.4145 71.5852 48.7914 73.5339 51.1724 75.4783C50.8709 76.6835 50.8709 76.6835 50.5632 77.913C44.4495 77.0466 39.3366 71.9796 34.7241 68.1739C33.5443 67.208 32.364 66.2427 31.1832 65.2779C30.5887 64.7921 29.9943 64.3063 29.3818 63.8058C28.9334 63.4394 28.485 63.0731 28.023 62.6957C27.9283 65.9325 27.8834 69.1652 27.8817 72.4034C27.8745 73.5009 27.8544 74.5984 27.8204 75.6954C27.5617 83.3359 27.5617 83.3359 31.0675 89.8707C32.3396 91.1675 33.6577 92.3866 35.039 93.5664C36.2476 94.6117 37.3284 95.7596 38.4198 96.9253C39.1274 97.6409 39.8372 98.3543 40.5496 99.0652C40.9294 99.4451 41.3092 99.825 41.7006 100.216C44.5051 102.987 47.4137 105.526 50.518 107.96C51.7816 108.957 51.7816 108.957 53 110.174C53 110.777 53 111.379 53 112C50.1636 112.315 48.6894 111.821 46.4546 110.052C45.944 109.623 45.944 109.623 45.4231 109.185C45.0604 108.89 44.6976 108.594 44.3239 108.29C38.6903 103.638 33.3122 98.7418 28.6322 93.1304C28.4312 103.777 28.2301 114.423 28.023 125.391C27.0178 125.592 26.0126 125.793 24.977 126C24.4126 124.086 24.2938 122.376 24.2987 120.383C24.2987 119.75 24.2988 119.116 24.2988 118.463C24.3019 117.784 24.3051 117.104 24.3083 116.404C24.3092 115.704 24.3101 115.005 24.3109 114.285C24.3143 112.052 24.322 109.82 24.3297 107.587C24.3328 106.073 24.3356 104.559 24.3381 103.046C24.3448 99.3347 24.355 95.6239 24.3678 91.913C21.7245 94.1919 19.1179 96.4704 16.6791 98.9701C16.1973 99.4589 15.7156 99.9478 15.2192 100.451C14.2375 101.454 13.2571 102.457 12.2779 103.462C5.48114 110.347 5.48114 110.347 2.43678 112C1.06029 111.804 1.06029 111.804 -6.38566e-07 111.391Z" fill="#5C3F17"/>
</svg>
